<svg width="40" height="40" viewBox="0 0 40 40" fill="none" xmlns="http://www.w3.org/2000/svg">
<path d="M0.455811 19.9999C0.455811 9.21506 9.2153 0.455566 20.0001 0.455566C30.7849 0.455566 39.5444 9.21506 39.5444 19.9999C39.5444 30.7847 30.7849 39.5442 20.0001 39.5442C9.2153 39.5442 0.455811 30.7847 0.455811 19.9999Z" fill="#005DA9"/>
<path fill-rule="evenodd" clip-rule="evenodd" d="M19.9999 0.638741C9.31624 0.638741 0.638741 9.31624 0.638741 19.9999C0.638741 30.6836 9.31624 39.3611 19.9999 39.3611C30.6836 39.3611 39.3611 30.6836 39.3611 19.9999C39.3611 9.31624 30.6836 0.638741 19.9999 0.638741ZM0.272461 19.9999C0.272461 9.11395 9.11395 0.272461 19.9999 0.272461C30.8859 0.272461 39.7274 9.11395 39.7274 19.9999C39.7274 30.8859 30.8859 39.7273 19.9999 39.7273C9.11395 39.7273 0.272461 30.8859 0.272461 19.9999Z" fill="white"/>
<path d="M14.6329 25.6708C12.5063 25.6708 11.443 26.9367 11.443 28.5569C11.443 30.1265 12.5063 31.443 14.6329 31.443C16.7594 31.443 17.8227 30.1772 17.8227 28.5569C17.8227 26.9367 16.7594 25.6708 14.6329 25.6708ZM14.6329 30.8354C13.5189 30.8354 12.962 29.8227 12.962 28.5569C12.962 27.2911 13.5189 26.2784 14.6329 26.2784C15.7468 26.2784 16.3038 27.2911 16.3038 28.5569C16.3038 29.8227 15.7468 30.8354 14.6329 30.8354ZM10.3797 26.9873V26.0253C9.6202 25.7721 9.11388 25.6708 8.50628 25.6708C6.43033 25.6708 5.31641 27.0379 5.31641 28.5569C5.31641 30.2278 6.6835 31.443 8.65818 31.443C9.46831 31.443 10.1265 31.1898 10.481 31.0886L10.7341 30.2784C10.1772 30.5316 9.6202 30.7341 8.96198 30.7341C7.84805 30.7341 6.78476 30.0759 6.78476 28.5063C6.78476 27.1898 7.64552 26.3291 8.75944 26.3291C9.51894 26.2784 10.0759 26.6835 10.3797 26.9873ZM29.6202 26.886L29.4177 25.8227H24.4557L24.2531 26.886C24.8101 26.3797 25.5189 26.3291 26.2784 26.4303V30.0253C26.2784 30.5316 26.2278 30.886 25.924 31.2911H28C27.6962 30.8354 27.6455 30.481 27.6455 30.0253V26.4303C28.3038 26.3291 29.0632 26.3797 29.6202 26.886ZM34.0253 27.0886V25.9746C33.6202 25.8227 33.1139 25.6708 32.5569 25.6708C31.1898 25.6708 30.5822 26.5822 30.5822 27.1898C30.5822 28 31.0886 28.3544 31.7974 28.8101C32.5569 29.3164 33.1645 29.5189 33.1645 30.0253C33.1645 30.3797 32.8101 30.7848 32.2025 30.7848C31.443 30.7848 30.886 30.4303 30.3797 29.8734V31.0379C30.886 31.2405 31.2405 31.3924 32.0506 31.3924C33.1645 31.3924 34.3291 30.7341 34.3291 29.5696C34.3291 28.6582 33.4683 28.2025 32.7088 27.7974C32.1519 27.4936 31.6962 27.2405 31.6962 26.886C31.6962 26.5316 32.0506 26.2278 32.5569 26.2278C33.0126 26.2784 33.4683 26.4303 34.0253 27.0886ZM24.5063 31.2911C24.0506 30.9873 23.7974 30.481 23.6455 30.0253L21.9746 25.8227H20.2531C20.405 26.0759 20.3038 26.3291 20.1519 26.6329L18.7848 30.0253C18.5316 30.6329 18.3797 30.8354 17.8734 31.2911H19.6455C19.2911 30.8354 19.4936 30.4303 19.6455 30.0253L20.962 26.7848L21.9746 29.2658H20.2531L20.5063 29.8227H22.2278L22.2784 29.9746C22.5822 30.7341 22.4303 31.0886 22.2278 31.2405H24.5063V31.2911ZM26.9873 14.9873L26.886 15.4936C26.5316 15.1392 26.3291 14.5316 26.3291 13.8227C26.3291 13.0633 26.5316 12.4557 26.9367 12.1012C26.8354 11.6962 26.6835 11.3417 26.5316 10.9873C25.8227 11.4936 25.4177 12.5569 25.4177 13.8227C25.4177 15.0886 25.7721 16.1012 26.481 16.6582C26.2784 17.0633 26.0759 17.4683 25.8227 17.8734C25.0126 17.5189 23.8987 17.6708 22.7341 18.3291C21.5696 18.9873 20.8607 19.8987 20.8101 20.7595C20.3544 20.8101 19.8987 20.8101 19.4936 20.7595C19.3924 19.8481 18.6835 18.9873 17.5696 18.3291C16.4557 17.6708 15.3417 17.4683 14.481 17.8734C14.2278 17.5189 13.9746 17.1139 13.8227 16.6582C14.481 16.1012 14.886 15.0886 14.886 13.8227C14.886 12.5569 14.481 11.4936 13.7721 10.9873C13.6202 11.3417 13.4683 11.7468 13.367 12.1012C13.7215 12.4557 13.9746 13.0633 13.9746 13.8227C13.9746 14.5316 13.7721 15.1392 13.4177 15.4936C13.367 15.3417 13.3164 15.1392 13.3164 14.9873C13.2658 14.6329 12.962 14.3797 12.5569 14.4303C12.7594 16.8101 13.9746 18.8354 15.8481 20.1012C16.1012 19.8481 16.1012 19.4936 15.7974 19.1898C15.6455 19.0379 15.443 18.886 15.2911 18.7341C15.7974 18.5316 16.4557 18.6835 17.1645 19.0886C17.8227 19.4936 18.2784 20 18.3797 20.5569C18.1772 20.5063 17.9746 20.4557 17.7721 20.3544C17.367 20.2025 17.0126 20.405 16.9113 20.7088C17.924 21.1645 19.0379 21.4683 20.2025 21.4683C21.367 21.4683 22.481 21.2152 23.4936 20.7088C23.3924 20.3544 23.0379 20.1519 22.6329 20.3544C22.4303 20.405 22.2278 20.5063 22.0253 20.5569C22.1265 20.0506 22.5316 19.4936 23.2405 19.0886C23.8987 18.6835 24.6075 18.5822 25.1139 18.7341C24.962 18.886 24.8101 19.0379 24.6075 19.1898C24.2531 19.443 24.3038 19.8481 24.5569 20.1012C26.3797 18.8354 27.6455 16.7595 27.8481 14.4303C27.3417 14.3797 27.0379 14.6329 26.9873 14.9873Z" fill="white"/>
<path d="M27.7975 10.582C27.5443 9.97445 27.1899 9.36685 26.7848 8.80989C27.4937 7.54407 26.7342 6.17698 25.1139 5.21496C23.4937 4.25293 21.8734 4.3542 21.1645 5.56939C20.8101 5.51875 20.4557 5.51875 20.1519 5.51875C19.7975 5.51875 19.443 5.51875 19.1392 5.56939C18.4304 4.30356 16.8101 4.25293 15.1899 5.21496C13.5696 6.17698 12.8101 7.54407 13.519 8.80989C13.1139 9.36685 12.7595 9.92382 12.5063 10.582C11.1392 10.6327 10.3291 11.9491 10.3291 13.8225C10.3291 15.696 11.1392 17.0124 12.5063 17.0631C12.3038 16.658 12.2025 16.2023 12.1013 15.7466C11.5443 15.4934 11.2405 14.7339 11.2405 13.8225C11.2405 12.9112 11.5443 12.2023 12.1013 11.8985C12.0506 12.101 12 12.3036 12 12.5061C11.9494 12.9112 12.2532 13.215 12.6076 13.215C12.8101 10.8352 14.0253 8.80989 15.8987 7.54407C15.7468 7.2909 15.3418 7.08837 14.9873 7.39217C14.8354 7.54407 14.6329 7.69597 14.481 7.84787C14.3797 7.18964 14.8354 6.48078 15.6962 6.02508C16.557 5.56939 17.3671 5.46812 17.8734 5.87318C17.6709 5.92382 17.519 5.97445 17.3164 6.07572C16.8607 6.22761 16.7595 6.58204 16.962 6.98711C17.9747 6.53141 19.0886 6.22761 20.2532 6.22761C21.4177 6.22761 22.5316 6.48078 23.5443 6.98711C23.7468 6.63268 23.5949 6.22761 23.1899 6.07572C22.9873 6.02508 22.8354 5.97445 22.6329 5.87318C23.1392 5.46812 24 5.51875 24.8101 6.02508C25.6709 6.53141 26.1266 7.18964 26.0253 7.84787C25.8734 7.69597 25.7215 7.54407 25.519 7.39217C25.1645 7.08837 24.7595 7.2909 24.6076 7.54407C26.4304 8.80989 27.6962 10.8858 27.8987 13.215C28.2532 13.215 28.557 12.9112 28.5063 12.5061C28.4557 12.3036 28.4557 12.101 28.4051 11.8985C28.9114 12.2023 29.2658 12.9112 29.2658 13.8225C29.2658 14.7339 28.962 15.4934 28.4051 15.7466C28.3038 16.2023 28.1519 16.658 28 17.0631C29.3671 17.0124 30.1772 15.696 30.1772 13.8225C29.9747 11.9998 29.1645 10.6327 27.7975 10.582Z" fill="white"/>
<path d="M22.8355 9.16456C23.8987 9.77216 24.962 9.97469 25.7215 9.67089C25.4684 9.31646 25.2152 9.0633 24.9114 8.7595C24.4557 8.86077 23.8481 8.70887 23.2911 8.35444C22.6836 8.00001 22.2785 7.59494 22.1266 7.08861C21.7215 6.98735 21.3165 6.88608 20.9114 6.83545C21.0633 7.69621 21.7722 8.50634 22.8355 9.16456ZM25.7722 19.9494C25.7215 20.5063 25.2658 21.0633 24.557 21.519C23.8481 21.9241 23.1393 22.0253 22.6329 21.8228C22.1772 21.9747 21.6709 22.076 21.2152 22.1266C21.9747 23.1899 23.4937 23.1899 25.0633 22.2785C26.6329 21.3671 27.3924 20.0506 26.8355 18.8355C26.481 19.2405 26.1266 19.5949 25.7722 19.9494ZM17.4177 9.16456C18.481 8.55697 19.1899 7.74684 19.3418 6.88608C18.9367 6.93672 18.5317 6.98735 18.1266 7.13925C17.9747 7.59494 17.5696 8.05064 16.962 8.40507C16.3544 8.7595 15.7975 8.86077 15.3418 8.81013C15.038 9.11393 14.7848 9.41773 14.5317 9.72153C15.2911 9.92406 16.3544 9.77216 17.4177 9.16456ZM15.6962 21.4684C14.9874 21.0633 14.5317 20.4557 14.481 19.8987C14.1266 19.5443 13.7722 19.1899 13.519 18.7848C12.962 20 13.7215 21.3165 15.2911 22.2279C16.8608 23.1392 18.3798 23.1392 19.1392 22.076C18.6329 22.0253 18.1772 21.9241 17.7215 21.7722C17.1646 22.0253 16.4051 21.8734 15.6962 21.4684Z" fill="white"/>
</svg>
